<svg width="82" height="41" viewBox="0 0 82 41" fill="none" xmlns="http://www.w3.org/2000/svg">
<path d="M12.7641 12.9309H12.7669C14.8612 12.9309 16.4836 14.4784 16.4836 16.2984V16.301C16.4836 18.121 14.8612 19.6685 12.7669 19.6685H12.7641C10.6698 19.6685 9.04736 18.121 9.04736 16.301V16.2984C9.04736 14.4784 10.6698 12.9309 12.7641 12.9309Z" fill="#AFB1B8" stroke="white"/>
<path d="M20.4581 26.9252C20.2765 26.9512 20.1164 26.9729 19.98 26.9907V11.1952C19.9864 8.37466 21.2107 5.66166 23.4011 3.65315C25.5928 1.6434 28.572 0.505419 31.6881 0.500001C34.8034 0.506715 37.7811 1.64527 39.9717 3.65487C42.1608 5.66316 43.3844 8.37531 43.3909 11.1949C43.3909 11.1952 43.3909 11.1955 43.3909 11.1957L43.3909 11.1971C43.3909 11.1971 43.3909 11.1971 43.3909 11.1972C43.3896 17.7811 37.5931 21.7573 31.5043 24.1083C28.4889 25.2727 25.468 26.0107 23.1972 26.4576C22.0629 26.6809 21.1182 26.831 20.4581 26.9252Z" fill="#AFB1B8" stroke="white"/>
<path d="M11.2156 32.9229C11.2154 32.4109 11.0495 31.9144 10.7449 31.4964C10.4407 31.0788 10.0129 30.7594 9.52041 30.5722C9.02808 30.3852 8.48849 30.3368 7.96829 30.4317C7.44802 30.5266 6.96473 30.7618 6.58148 31.1133C6.19777 31.4652 5.93088 31.919 5.82221 32.4201C5.71344 32.9216 5.76976 33.4409 5.98171 33.9103C6.19335 34.3789 6.54843 34.7723 6.99515 35.0461C7.29972 35.2328 7.63889 35.359 7.99185 35.4204V35.4712L8.49185 35.4712C8.84466 35.4712 9.19488 35.4073 9.52275 35.2824C9.85065 35.1575 10.1511 34.9735 10.4059 34.7389C10.6607 34.5043 10.8651 34.2235 11.005 33.9113C11.1448 33.5992 11.2168 33.2632 11.2156 32.9229ZM11.2156 32.9229C11.2156 32.9233 11.2156 32.9236 11.2156 32.924H10.7157L11.2156 32.9219C11.2156 32.9223 11.2156 32.9226 11.2156 32.9229ZM16.3246 22.1316C16.3807 22.1236 16.4337 22.1162 16.4837 22.1094L16.4837 32.9249C16.4837 32.9251 16.4837 32.9253 16.4837 32.9255C16.4774 34.8424 15.6447 36.6889 14.1512 38.0587C12.6565 39.4296 10.6226 40.209 8.49185 40.2151C6.36063 40.209 4.32634 39.4293 2.83154 38.0578C1.33805 36.6876 0.505654 34.8406 0.5 32.9233C0.500417 28.4494 4.43982 25.7176 8.67197 24.0833C10.7591 23.2773 12.8519 22.7658 14.4266 22.4558C15.2129 22.301 15.8676 22.1969 16.3246 22.1316Z" fill="#AFB1B8" stroke="white"/>
<path d="M25.7405 33.8306H24.053V35.5737H23.1741V31.3081H25.9514V32.02H24.053V33.1216H25.7405V33.8306ZM29.9651 33.5376C29.9651 33.9575 29.8909 34.3257 29.7424 34.6421C29.594 34.9585 29.3811 35.2026 29.1038 35.3745C28.8284 35.5464 28.512 35.6323 28.1545 35.6323C27.801 35.6323 27.4856 35.5474 27.2083 35.3774C26.9309 35.2075 26.7161 34.9653 26.5637 34.6509C26.4114 34.3345 26.3342 33.9712 26.3323 33.561V33.3501C26.3323 32.9302 26.4075 32.561 26.5579 32.2427C26.7102 31.9224 26.9241 31.6772 27.1995 31.5073C27.4768 31.3354 27.7932 31.2495 28.1487 31.2495C28.5042 31.2495 28.8196 31.3354 29.095 31.5073C29.3723 31.6772 29.5862 31.9224 29.7366 32.2427C29.8889 32.561 29.9651 32.9292 29.9651 33.3472V33.5376ZM29.0745 33.3442C29.0745 32.897 28.9944 32.5571 28.8342 32.3247C28.6741 32.0923 28.4456 31.9761 28.1487 31.9761C27.8538 31.9761 27.6262 32.0913 27.4661 32.3218C27.3059 32.5503 27.2249 32.8862 27.2229 33.3296V33.5376C27.2229 33.9731 27.303 34.311 27.4631 34.5513C27.6233 34.7915 27.8538 34.9116 28.1545 34.9116C28.4495 34.9116 28.676 34.7964 28.8342 34.5659C28.9924 34.3335 29.0725 33.9956 29.0745 33.5522V33.3442ZM32.8157 34.4546C32.8157 34.2886 32.7571 34.1616 32.6399 34.0737C32.5227 33.9839 32.3118 33.8901 32.0071 33.7925C31.7024 33.6929 31.4612 33.5952 31.2834 33.4995C30.7991 33.2378 30.5569 32.8853 30.5569 32.4419C30.5569 32.2114 30.6213 32.0063 30.7502 31.8267C30.8811 31.645 31.0676 31.5034 31.3098 31.4019C31.554 31.3003 31.8274 31.2495 32.1301 31.2495C32.4348 31.2495 32.7063 31.3052 32.9446 31.4165C33.1829 31.5259 33.3674 31.6812 33.4983 31.8823C33.6311 32.0835 33.6975 32.312 33.6975 32.5679H32.8186C32.8186 32.3726 32.7571 32.2212 32.634 32.1138C32.511 32.0044 32.3381 31.9497 32.1155 31.9497C31.9006 31.9497 31.7336 31.9956 31.6145 32.0874C31.4954 32.1772 31.4358 32.2964 31.4358 32.4448C31.4358 32.5835 31.5051 32.6997 31.6438 32.7935C31.7844 32.8872 31.9905 32.9751 32.262 33.0571C32.762 33.2075 33.1262 33.394 33.3547 33.6167C33.5833 33.8394 33.6975 34.1167 33.6975 34.4487C33.6975 34.8179 33.5579 35.1079 33.2786 35.3188C32.9993 35.5278 32.6233 35.6323 32.1506 35.6323C31.8225 35.6323 31.5237 35.5728 31.2542 35.4536C30.9846 35.3325 30.7786 35.1675 30.636 34.9585C30.4954 34.7495 30.425 34.5073 30.425 34.2319H31.3069C31.3069 34.7026 31.5881 34.938 32.1506 34.938C32.3596 34.938 32.5227 34.896 32.6399 34.812C32.7571 34.7261 32.8157 34.6069 32.8157 34.4546ZM37.5061 32.02H36.1995V35.5737H35.3206V32.02H34.0315V31.3081H37.5061V32.02ZM40.5764 33.7251H38.8889V34.8677H40.8694V35.5737H38.01V31.3081H40.8635V32.02H38.8889V33.0366H40.5764V33.7251ZM42.9641 34.0122H42.2639V35.5737H41.385V31.3081H42.97C43.4739 31.3081 43.8625 31.4204 44.136 31.645C44.4094 31.8696 44.5461 32.187 44.5461 32.5972C44.5461 32.8882 44.4827 33.1313 44.3557 33.3267C44.2307 33.52 44.0403 33.6743 43.7844 33.7896L44.7073 35.5327V35.5737H43.7639L42.9641 34.0122ZM42.2639 33.3003H42.9729C43.1936 33.3003 43.3645 33.2446 43.4856 33.1333C43.6067 33.02 43.6672 32.8647 43.6672 32.6675C43.6672 32.4663 43.6096 32.3081 43.4944 32.1929C43.3811 32.0776 43.2063 32.02 42.97 32.02H42.2639V33.3003ZM47.5901 34.0708V35.5737H46.7112V31.3081H48.3752C48.6956 31.3081 48.9768 31.3667 49.219 31.4839C49.4631 31.6011 49.6506 31.7681 49.7815 31.9849C49.9124 32.1997 49.9778 32.4448 49.9778 32.7202C49.9778 33.1382 49.8342 33.4683 49.5471 33.7104C49.262 33.9507 48.8665 34.0708 48.3606 34.0708H47.5901ZM47.5901 33.3589H48.3752C48.6077 33.3589 48.7844 33.3042 48.9055 33.1948C49.0286 33.0854 49.0901 32.9292 49.0901 32.7261C49.0901 32.5171 49.0286 32.3481 48.9055 32.2192C48.7825 32.0903 48.6125 32.0239 48.3958 32.02H47.5901V33.3589ZM53.1506 33.7251H51.4631V34.8677H53.4436V35.5737H50.5842V31.3081H53.4377V32.02H51.4631V33.0366H53.1506V33.7251ZM57.2288 32.02H55.9221V35.5737H55.0432V32.02H53.7542V31.3081H57.2288V32.02ZM60.2991 33.7251H58.6116V34.8677H60.592V35.5737H57.7327V31.3081H60.5862V32.02H58.6116V33.0366H60.2991V33.7251ZM62.6868 34.0122H61.9866V35.5737H61.1077V31.3081H62.6926C63.1965 31.3081 63.5852 31.4204 63.8586 31.645C64.1321 31.8696 64.2688 32.187 64.2688 32.5972C64.2688 32.8882 64.2053 33.1313 64.0784 33.3267C63.9534 33.52 63.7629 33.6743 63.5071 33.7896L64.4299 35.5327V35.5737H63.4866L62.6868 34.0122ZM61.9866 33.3003H62.6956C62.9163 33.3003 63.0872 33.2446 63.2083 33.1333C63.3293 33.02 63.3899 32.8647 63.3899 32.6675C63.3899 32.4663 63.3323 32.3081 63.217 32.1929C63.1038 32.0776 62.929 32.02 62.6926 32.02H61.9866V33.3003ZM67.1516 34.4546C67.1516 34.2886 67.093 34.1616 66.9758 34.0737C66.8586 33.9839 66.6477 33.8901 66.343 33.7925C66.0383 33.6929 65.7971 33.5952 65.6194 33.4995C65.135 33.2378 64.8928 32.8853 64.8928 32.4419C64.8928 32.2114 64.9573 32.0063 65.0862 31.8267C65.217 31.645 65.4036 31.5034 65.6458 31.4019C65.8899 31.3003 66.1633 31.2495 66.4661 31.2495C66.7708 31.2495 67.0422 31.3052 67.2805 31.4165C67.5188 31.5259 67.7034 31.6812 67.8342 31.8823C67.967 32.0835 68.0334 32.312 68.0334 32.5679H67.1545C67.1545 32.3726 67.093 32.2212 66.97 32.1138C66.8469 32.0044 66.6741 31.9497 66.4514 31.9497C66.2366 31.9497 66.0696 31.9956 65.9504 32.0874C65.8313 32.1772 65.7717 32.2964 65.7717 32.4448C65.7717 32.5835 65.8411 32.6997 65.9797 32.7935C66.1204 32.8872 66.3264 32.9751 66.5979 33.0571C67.0979 33.2075 67.4622 33.394 67.6907 33.6167C67.9192 33.8394 68.0334 34.1167 68.0334 34.4487C68.0334 34.8179 67.8938 35.1079 67.6145 35.3188C67.3352 35.5278 66.9592 35.6323 66.4866 35.6323C66.1584 35.6323 65.8596 35.5728 65.5901 35.4536C65.3206 35.3325 65.1145 35.1675 64.9719 34.9585C64.8313 34.7495 64.761 34.5073 64.761 34.2319H65.6428C65.6428 34.7026 65.9241 34.938 66.4866 34.938C66.6956 34.938 66.8586 34.896 66.9758 34.812C67.093 34.7261 67.1516 34.6069 67.1516 34.4546Z" fill="#AFB1B8"/>
<path d="M25.7405 33.8306V34.8306H26.7405V33.8306H25.7405ZM24.053 33.8306V32.8306H23.053V33.8306H24.053ZM24.053 35.5737V36.5737H25.053V35.5737H24.053ZM23.1741 35.5737H22.1741V36.5737H23.1741V35.5737ZM23.1741 31.3081V30.3081H22.1741V31.3081H23.1741ZM25.9514 31.3081H26.9514V30.3081H25.9514V31.3081ZM25.9514 32.02V33.02H26.9514V32.02H25.9514ZM24.053 32.02V31.02H23.053V32.02H24.053ZM24.053 33.1216H23.053V34.1216H24.053V33.1216ZM25.7405 33.1216H26.7405V32.1216H25.7405V33.1216ZM25.7405 32.8306H24.053V34.8306H25.7405V32.8306ZM23.053 33.8306V35.5737H25.053V33.8306H23.053ZM24.053 34.5737H23.1741V36.5737H24.053V34.5737ZM24.1741 35.5737V31.3081H22.1741V35.5737H24.1741ZM23.1741 32.3081H25.9514V30.3081H23.1741V32.3081ZM24.9514 31.3081V32.02H26.9514V31.3081H24.9514ZM25.9514 31.02H24.053V33.02H25.9514V31.02ZM23.053 32.02V33.1216H25.053V32.02H23.053ZM24.053 34.1216H25.7405V32.1216H24.053V34.1216ZM24.7405 33.1216V33.8306H26.7405V33.1216H24.7405ZM29.1038 35.3745L28.577 34.5245L28.5743 34.5262L29.1038 35.3745ZM26.5637 34.6509L25.6627 35.0847L25.6638 35.0869L26.5637 34.6509ZM26.3323 33.561L25.3323 33.561L25.3323 33.5658L26.3323 33.561ZM26.5579 32.2427L25.6548 31.8132L25.6537 31.8155L26.5579 32.2427ZM27.1995 31.5073L27.7246 32.3584L27.7262 32.3573L27.1995 31.5073ZM29.095 31.5073L28.5655 32.3557L28.5725 32.36L29.095 31.5073ZM29.7366 32.2427L28.8314 32.6677L28.8345 32.6743L29.7366 32.2427ZM27.4661 32.3218L28.285 32.8957L28.2873 32.8924L27.4661 32.3218ZM27.2229 33.3296L26.2229 33.3252V33.3296H27.2229ZM28.8342 34.5659L29.6587 35.1319L29.6609 35.1286L28.8342 34.5659ZM29.0745 33.5522L30.0745 33.5567V33.5522H29.0745ZM28.9651 33.5376C28.9651 33.8399 28.9119 34.0579 28.8371 34.2174L30.6478 35.0668C30.8698 34.5934 30.9651 34.0752 30.9651 33.5376H28.9651ZM28.8371 34.2174C28.7649 34.3714 28.6778 34.4621 28.577 34.5245L29.6305 36.2245C30.0845 35.9432 30.4231 35.5456 30.6478 35.0668L28.8371 34.2174ZM28.5743 34.5262C28.4735 34.5891 28.3443 34.6323 28.1545 34.6323V36.6323C28.6796 36.6323 29.1832 36.5037 29.6332 36.2228L28.5743 34.5262ZM28.1545 34.6323C27.9688 34.6323 27.8372 34.59 27.7307 34.5248L26.6858 36.2301C27.134 36.5047 27.6332 36.6323 28.1545 36.6323V34.6323ZM27.7307 34.5248C27.6286 34.4622 27.5391 34.3705 27.4637 34.2149L25.6638 35.0869C25.893 35.5601 26.2332 35.9528 26.6858 36.2301L27.7307 34.5248ZM27.4647 34.2171C27.3868 34.0552 27.3336 33.8427 27.3323 33.5563L25.3323 33.5658C25.3348 34.0997 25.4359 34.6137 25.6627 35.0847L27.4647 34.2171ZM27.3323 33.561V33.3501H25.3323V33.561H27.3323ZM27.3323 33.3501C27.3323 33.0498 27.3857 32.8313 27.4621 32.6698L25.6537 31.8155C25.4292 32.2907 25.3323 32.8106 25.3323 33.3501H27.3323ZM27.4609 32.6722C27.5388 32.5085 27.6288 32.4175 27.7246 32.3584L26.6744 30.6563C26.2194 30.937 25.8816 31.3363 25.6548 31.8132L27.4609 32.6722ZM27.7262 32.3573C27.8313 32.2922 27.9621 32.2495 28.1487 32.2495V30.2495C27.6243 30.2495 27.1223 30.3787 26.6727 30.6573L27.7262 32.3573ZM28.1487 32.2495C28.3354 32.2495 28.4639 32.2922 28.5655 32.3557L29.6244 30.659C29.1753 30.3787 28.6729 30.2495 28.1487 30.2495V32.2495ZM28.5725 32.36C28.6686 32.4189 28.7564 32.508 28.8314 32.6677L30.6418 31.8177C30.4159 31.3367 30.076 30.9356 29.6174 30.6546L28.5725 32.36ZM28.8345 32.6743C28.9116 32.8353 28.9651 33.0513 28.9651 33.3472H30.9651C30.9651 32.8071 30.8663 32.2868 30.6386 31.811L28.8345 32.6743ZM28.9651 33.3472V33.5376H30.9651V33.3472H28.9651ZM30.0745 33.3442C30.0745 32.8034 29.9822 32.2282 29.6577 31.7573L28.0108 32.8921C28.0058 32.8849 28.023 32.9067 28.0411 32.9833C28.0593 33.0605 28.0745 33.1774 28.0745 33.3442H30.0745ZM29.6577 31.7573C29.2997 31.2378 28.7543 30.9761 28.1487 30.9761V32.9761C28.1645 32.9761 28.1363 32.9784 28.0894 32.9546C28.0676 32.9435 28.0486 32.93 28.0336 32.9166C28.0189 32.9034 28.0119 32.8937 28.0108 32.8921L29.6577 31.7573ZM28.1487 30.9761C27.546 30.9761 27.0029 31.2359 26.6449 31.7511L28.2873 32.8924C28.2861 32.8942 28.279 32.9038 28.2643 32.9169C28.2494 32.9303 28.2304 32.9436 28.2086 32.9546C28.162 32.9783 28.1336 32.9761 28.1487 32.9761V30.9761ZM26.6472 31.7478C26.3195 32.2154 26.2253 32.7885 26.2229 33.3252L28.2229 33.334C28.2236 33.1692 28.2392 33.0546 28.2573 32.9797C28.2752 32.9054 28.2916 32.8862 28.285 32.8957L26.6472 31.7478ZM26.2229 33.3296V33.5376H28.2229V33.3296H26.2229ZM26.2229 33.5376C26.2229 34.0766 26.3189 34.6376 26.6311 35.106L28.2952 33.9966C28.2871 33.9844 28.2229 33.8697 28.2229 33.5376H26.2229ZM26.6311 35.106C26.9858 35.638 27.5361 35.9116 28.1545 35.9116V33.9116C28.1397 33.9116 28.1699 33.9095 28.2183 33.9347C28.2408 33.9465 28.2598 33.9604 28.2745 33.9739C28.2887 33.9871 28.295 33.9963 28.2952 33.9966L26.6311 35.106ZM28.1545 35.9116C28.7575 35.9116 29.3021 35.6513 29.6587 35.1319L28.0098 34C28.0114 33.9975 28.0191 33.9871 28.0344 33.9733C28.0501 33.9592 28.0698 33.9453 28.0923 33.9339C28.1404 33.9094 28.1697 33.9116 28.1545 33.9116V35.9116ZM29.6609 35.1286C29.9788 34.6616 30.0721 34.0934 30.0745 33.5567L28.0745 33.5478C28.0737 33.7132 28.0583 33.8299 28.0399 33.9076C28.0216 33.9848 28.004 34.0085 28.0076 34.0032L29.6609 35.1286ZM30.0745 33.5522V33.3442H28.0745V33.5522H30.0745ZM32.6399 34.0737L32.0314 34.8674L32.0399 34.8737L32.6399 34.0737ZM32.0071 33.7925L31.6963 34.743L31.7019 34.7448L32.0071 33.7925ZM31.2834 33.4995L30.8081 34.3793L30.8093 34.38L31.2834 33.4995ZM30.7502 31.8267L29.9389 31.2421L29.9377 31.2438L30.7502 31.8267ZM31.3098 31.4019L30.9257 30.4786L30.9231 30.4797L31.3098 31.4019ZM32.9446 31.4165L32.5213 32.3225L32.5274 32.3253L32.9446 31.4165ZM33.4983 31.8823L32.66 32.4276L32.6638 32.4333L33.4983 31.8823ZM33.6975 32.5679V33.5679H34.6975V32.5679H33.6975ZM32.8186 32.5679H31.8186V33.5679H32.8186V32.5679ZM32.634 32.1138L31.9696 32.8612L31.9764 32.8671L32.634 32.1138ZM31.6145 32.0874L32.2166 32.8859L32.2248 32.8795L31.6145 32.0874ZM31.6438 32.7935L31.0837 33.6219L31.0891 33.6255L31.6438 32.7935ZM32.262 33.0571L31.9727 34.0144L31.9739 34.0147L32.262 33.0571ZM33.2786 35.3188L33.8777 36.1195L33.8812 36.1168L33.2786 35.3188ZM31.2542 35.4536L30.8443 36.3658L30.8499 36.3682L31.2542 35.4536ZM30.636 34.9585L29.8063 35.5168L29.8099 35.5221L30.636 34.9585ZM30.425 34.2319V33.2319H29.425V34.2319H30.425ZM31.3069 34.2319H32.3069V33.2319H31.3069V34.2319ZM32.6399 34.812L33.2224 35.6249L33.2313 35.6184L32.6399 34.812ZM33.8157 34.4546C33.8157 34.0218 33.645 33.5775 33.2399 33.2737L32.0399 34.8737C31.9724 34.8231 31.9073 34.7482 31.8638 34.6539C31.8221 34.5637 31.8157 34.4895 31.8157 34.4546H33.8157ZM33.2483 33.2801C32.984 33.0775 32.629 32.9417 32.3123 32.8402L31.7019 34.7448C31.8319 34.7864 31.9249 34.822 31.9877 34.8498C32.0566 34.8805 32.06 34.8892 32.0315 34.8673L33.2483 33.2801ZM32.3178 32.842C32.0408 32.7514 31.8618 32.6752 31.7575 32.619L30.8093 34.38C31.0605 34.5152 31.3639 34.6343 31.6963 34.743L32.3178 32.842ZM31.7588 32.6197C31.6173 32.5433 31.572 32.4861 31.5628 32.4726C31.5603 32.469 31.5593 32.467 31.5592 32.4667C31.559 32.4663 31.559 32.4663 31.559 32.4663C31.559 32.4662 31.5585 32.4648 31.558 32.4614C31.5575 32.458 31.5569 32.4517 31.5569 32.4419H29.5569C29.5569 33.3469 30.0929 33.9929 30.8081 34.3793L31.7588 32.6197ZM31.5569 32.4419C31.5569 32.431 31.5576 32.424 31.5582 32.4202C31.5585 32.4183 31.5587 32.417 31.5589 32.4162C31.5591 32.4155 31.5592 32.4151 31.5592 32.4151C31.5592 32.415 31.5592 32.4151 31.5592 32.4152C31.5591 32.4154 31.5591 32.4154 31.5592 32.4152C31.5593 32.415 31.5602 32.4132 31.5628 32.4096L29.9377 31.2438C29.6815 31.6008 29.5569 32.0117 29.5569 32.4419H31.5569ZM31.5616 32.4112C31.5673 32.4033 31.5945 32.3668 31.6965 32.324L30.9231 30.4797C30.5408 30.64 30.1949 30.8867 29.9389 31.2421L31.5616 32.4112ZM31.6939 32.3252C31.8 32.281 31.9403 32.2495 32.1301 32.2495V30.2495C31.7145 30.2495 31.3079 30.3196 30.9257 30.4786L31.6939 32.3252ZM32.1301 32.2495C32.3116 32.2495 32.435 32.2822 32.5213 32.3225L33.3679 30.5105C32.9776 30.3282 32.558 30.2495 32.1301 30.2495V32.2495ZM32.5274 32.3253C32.6103 32.3634 32.6418 32.3996 32.66 32.4276L34.3365 31.337C34.0931 30.9627 33.7555 30.6884 33.3617 30.5077L32.5274 32.3253ZM32.6638 32.4333C32.6819 32.4607 32.6975 32.4953 32.6975 32.5679H34.6975C34.6975 32.1288 34.5803 31.7063 34.3328 31.3314L32.6638 32.4333ZM33.6975 31.5679H32.8186V33.5679H33.6975V31.5679ZM33.8186 32.5679C33.8186 32.1457 33.6749 31.695 33.2917 31.3605L31.9764 32.8671C31.92 32.8179 31.8742 32.7535 31.8461 32.6844C31.8197 32.6196 31.8186 32.5746 31.8186 32.5679H33.8186ZM33.2984 31.3664C32.9362 31.0444 32.4959 30.9497 32.1155 30.9497V32.9497C32.1469 32.9497 32.1409 32.9538 32.1105 32.9441C32.0765 32.9334 32.0234 32.909 31.9697 32.8612L33.2984 31.3664ZM32.1155 30.9497C31.7717 30.9497 31.3592 31.0217 31.0042 31.2953L32.2248 32.8795C32.1672 32.924 32.117 32.9421 32.0941 32.9484C32.0735 32.954 32.0771 32.9497 32.1155 32.9497V30.9497ZM31.0124 31.289C30.6443 31.5666 30.4358 31.9806 30.4358 32.4448H32.4358C32.4358 32.5079 32.4221 32.5968 32.3749 32.6914C32.3277 32.7857 32.2653 32.8491 32.2166 32.8858L31.0124 31.289ZM30.4358 32.4448C30.4358 32.9872 30.7351 33.3862 31.0837 33.6219L32.2039 31.965C32.228 31.9813 32.2904 32.0295 32.3466 32.1236C32.4067 32.2244 32.4358 32.3384 32.4358 32.4448H30.4358ZM31.0891 33.6255C31.3483 33.7983 31.6616 33.9204 31.9727 34.0144L32.5512 32.0999C32.3193 32.0298 32.2205 31.9761 32.1985 31.9614L31.0891 33.6255ZM31.9739 34.0147C32.4068 34.145 32.5946 34.2722 32.6569 34.3329L34.0526 32.9005C33.6579 32.5159 33.1171 32.2701 32.55 32.0995L31.9739 34.0147ZM32.6569 34.3329C32.6798 34.3553 32.6853 34.3679 32.6872 34.3726C32.6895 34.3782 32.6975 34.3994 32.6975 34.4487H34.6975C34.6975 33.8593 34.4829 33.3198 34.0526 32.9005L32.6569 34.3329ZM32.6975 34.4487C32.6975 34.4779 32.6948 34.4954 32.693 34.5035C32.6914 34.5112 32.6904 34.5122 32.6918 34.5093C32.6932 34.5062 32.6948 34.5042 32.6947 34.5043C32.6944 34.5047 32.6895 34.5106 32.6759 34.5209L33.8812 36.1168C34.4263 35.7052 34.6975 35.1115 34.6975 34.4487H32.6975ZM32.6795 34.5182C32.6252 34.5588 32.483 34.6323 32.1506 34.6323V36.6323C32.7636 36.6323 33.3733 36.4969 33.8777 36.1195L32.6795 34.5182ZM32.1506 34.6323C31.9459 34.6323 31.7869 34.5958 31.6584 34.539L30.8499 36.3682C31.2605 36.5498 31.6991 36.6323 32.1506 36.6323V34.6323ZM31.664 34.5414C31.534 34.4831 31.4843 34.4275 31.4621 34.3949L29.8099 35.5221C30.0728 35.9075 30.4352 36.182 30.8443 36.3658L31.664 34.5414ZM31.4656 34.4002C31.4464 34.3716 31.425 34.3278 31.425 34.2319H29.425C29.425 34.6868 29.5443 35.1274 29.8063 35.5168L31.4656 34.4002ZM30.425 35.2319H31.3069V33.2319H30.425V35.2319ZM30.3069 34.2319C30.3069 34.6729 30.4471 35.1694 30.8761 35.5284C31.2709 35.8588 31.7544 35.938 32.1506 35.938V33.938C32.0765 33.938 32.0475 33.9299 32.0502 33.9306C32.0554 33.9321 32.1018 33.9462 32.1596 33.9946C32.2211 34.0461 32.2647 34.1108 32.2886 34.1708C32.3101 34.2247 32.3069 34.2521 32.3069 34.2319H30.3069ZM32.1506 35.938C32.4786 35.938 32.8745 35.8742 33.2224 35.6248L32.0574 33.9992C32.1146 33.9582 32.1619 33.9428 32.1803 33.9381C32.197 33.9338 32.1903 33.938 32.1506 33.938V35.938ZM33.2313 35.6184C33.6196 35.3337 33.8157 34.9074 33.8157 34.4546H31.8157C31.8157 34.4003 31.8268 34.3136 31.8744 34.2169C31.9227 34.1186 31.9897 34.0487 32.0485 34.0056L33.2313 35.6184ZM37.5061 32.02V33.02H38.5061V32.02H37.5061ZM36.1995 32.02V31.02H35.1995V32.02H36.1995ZM36.1995 35.5737V36.5737H37.1995V35.5737H36.1995ZM35.3206 35.5737H34.3206V36.5737H35.3206V35.5737ZM35.3206 32.02H36.3206V31.02H35.3206V32.02ZM34.0315 32.02H33.0315V33.02H34.0315V32.02ZM34.0315 31.3081V30.3081H33.0315V31.3081H34.0315ZM37.5061 31.3081H38.5061V30.3081H37.5061V31.3081ZM37.5061 31.02H36.1995V33.02H37.5061V31.02ZM35.1995 32.02V35.5737H37.1995V32.02H35.1995ZM36.1995 34.5737H35.3206V36.5737H36.1995V34.5737ZM36.3206 35.5737V32.02H34.3206V35.5737H36.3206ZM35.3206 31.02H34.0315V33.02H35.3206V31.02ZM35.0315 32.02V31.3081H33.0315V32.02H35.0315ZM34.0315 32.3081H37.5061V30.3081H34.0315V32.3081ZM36.5061 31.3081V32.02H38.5061V31.3081H36.5061ZM40.5764 33.7251V34.7251H41.5764V33.7251H40.5764ZM38.8889 33.7251V32.7251H37.8889V33.7251H38.8889ZM38.8889 34.8677H37.8889V35.8677H38.8889V34.8677ZM40.8694 34.8677H41.8694V33.8677H40.8694V34.8677ZM40.8694 35.5737V36.5737H41.8694V35.5737H40.8694ZM38.01 35.5737H37.01V36.5737H38.01V35.5737ZM38.01 31.3081V30.3081H37.01V31.3081H38.01ZM40.8635 31.3081H41.8635V30.3081H40.8635V31.3081ZM40.8635 32.02V33.02H41.8635V32.02H40.8635ZM38.8889 32.02V31.02H37.8889V32.02H38.8889ZM38.8889 33.0366H37.8889V34.0366H38.8889V33.0366ZM40.5764 33.0366H41.5764V32.0366H40.5764V33.0366ZM40.5764 32.7251H38.8889V34.7251H40.5764V32.7251ZM37.8889 33.7251V34.8677H39.8889V33.7251H37.8889ZM38.8889 35.8677H40.8694V33.8677H38.8889V35.8677ZM39.8694 34.8677V35.5737H41.8694V34.8677H39.8694ZM40.8694 34.5737H38.01V36.5737H40.8694V34.5737ZM39.01 35.5737V31.3081H37.01V35.5737H39.01ZM38.01 32.3081H40.8635V30.3081H38.01V32.3081ZM39.8635 31.3081V32.02H41.8635V31.3081H39.8635ZM40.8635 31.02H38.8889V33.02H40.8635V31.02ZM37.8889 32.02V33.0366H39.8889V32.02H37.8889ZM38.8889 34.0366H40.5764V32.0366H38.8889V34.0366ZM39.5764 33.0366V33.7251H41.5764V33.0366H39.5764ZM42.9641 34.0122L43.8542 33.5563L43.5755 33.0122H42.9641V34.0122ZM42.2639 34.0122V33.0122H41.2639V34.0122H42.2639ZM42.2639 35.5737V36.5737H43.2639V35.5737H42.2639ZM41.385 35.5737H40.385V36.5737H41.385V35.5737ZM41.385 31.3081V30.3081H40.385V31.3081H41.385ZM44.3557 33.3267L43.5173 32.7817L43.5159 32.7838L44.3557 33.3267ZM43.7844 33.7896L43.3738 32.8778L42.4019 33.3155L42.9006 34.2574L43.7844 33.7896ZM44.7073 35.5327H45.7073V35.2843L45.5911 35.0648L44.7073 35.5327ZM44.7073 35.5737V36.5737H45.7073V35.5737H44.7073ZM43.7639 35.5737L42.8739 36.0296L43.1526 36.5737H43.7639V35.5737ZM42.2639 33.3003H41.2639V34.3003H42.2639V33.3003ZM43.4856 33.1333L44.1624 33.8695L44.1688 33.8636L43.4856 33.1333ZM43.4944 32.1929L42.7812 32.8939L42.7873 32.9L43.4944 32.1929ZM42.2639 32.02V31.02H41.2639V32.02H42.2639ZM42.9641 33.0122H42.2639V35.0122H42.9641V33.0122ZM41.2639 34.0122V35.5737H43.2639V34.0122H41.2639ZM42.2639 34.5737H41.385V36.5737H42.2639V34.5737ZM42.385 35.5737V31.3081H40.385V35.5737H42.385ZM41.385 32.3081H42.97V30.3081H41.385V32.3081ZM42.97 32.3081C43.3386 32.3081 43.4691 32.3914 43.5012 32.4177L44.7707 30.8723C44.256 30.4495 43.6091 30.3081 42.97 30.3081V32.3081ZM43.5012 32.4177C43.5177 32.4313 43.5215 32.4386 43.5252 32.4471C43.5306 32.4598 43.5461 32.5031 43.5461 32.5972H45.5461C45.5461 31.941 45.3136 31.3182 44.7707 30.8723L43.5012 32.4177ZM43.5461 32.5972C43.5461 32.6705 43.5381 32.7179 43.531 32.7452C43.5242 32.7712 43.5179 32.7808 43.5173 32.7817L45.1942 33.8716C45.4501 33.478 45.5461 33.0335 45.5461 32.5972H43.5461ZM43.5159 32.7838C43.5143 32.7863 43.5081 32.7954 43.4896 32.8104C43.4701 32.8263 43.4343 32.8505 43.3738 32.8778L44.1951 34.7013C44.5879 34.5244 44.9451 34.2569 45.1955 33.8696L43.5159 32.7838ZM42.9006 34.2574L43.8235 36.0006L45.5911 35.0648L44.6682 33.3217L42.9006 34.2574ZM43.7073 35.5327V35.5737H45.7073V35.5327H43.7073ZM44.7073 34.5737H43.7639V36.5737H44.7073V34.5737ZM44.654 35.1179L43.8542 33.5563L42.0741 34.4681L42.8739 36.0296L44.654 35.1179ZM42.2639 34.3003H42.9729V32.3003H42.2639V34.3003ZM42.9729 34.3003C43.3571 34.3003 43.8013 34.2015 44.1624 33.8695L42.8088 32.3971C42.8633 32.347 42.9188 32.3201 42.9569 32.3077C42.9912 32.2965 43.0011 32.3003 42.9729 32.3003V34.3003ZM44.1688 33.8636C44.5301 33.5255 44.6672 33.0846 44.6672 32.6675H42.6672C42.6672 32.6642 42.6678 32.6259 42.6902 32.5686C42.7139 32.5076 42.7532 32.4491 42.8024 32.403L44.1688 33.8636ZM44.6672 32.6675C44.6672 32.267 44.5462 31.8305 44.2015 31.4858L42.7873 32.9C42.7382 32.8509 42.7038 32.7935 42.6844 32.7402C42.6663 32.6906 42.6672 32.6615 42.6672 32.6675H44.6672ZM44.2075 31.4918C43.8341 31.112 43.3503 31.02 42.97 31.02V33.02C43.0104 33.02 43.0029 33.0254 42.9653 33.013C42.9226 32.9989 42.8509 32.9648 42.7813 32.8939L44.2075 31.4918ZM42.97 31.02H42.2639V33.02H42.97V31.02ZM41.2639 32.02V33.3003H43.2639V32.02H41.2639ZM47.5901 34.0708V33.0708H46.5901V34.0708H47.5901ZM47.5901 35.5737V36.5737H48.5901V35.5737H47.5901ZM46.7112 35.5737H45.7112V36.5737H46.7112V35.5737ZM46.7112 31.3081V30.3081H45.7112V31.3081H46.7112ZM49.219 31.4839L48.7834 32.3841L48.7863 32.3854L49.219 31.4839ZM49.7815 31.9849L48.9254 32.5016L48.9274 32.5051L49.7815 31.9849ZM49.5471 33.7104L50.1914 34.4752L50.1919 34.4748L49.5471 33.7104ZM47.5901 33.3589H46.5901V34.3589H47.5901V33.3589ZM48.9055 33.1948L48.2411 32.4474L48.2352 32.4527L48.9055 33.1948ZM48.3958 32.02L48.4138 31.0202L48.4048 31.02H48.3958V32.02ZM47.5901 32.02V31.02H46.5901V32.02H47.5901ZM46.5901 34.0708V35.5737H48.5901V34.0708H46.5901ZM47.5901 34.5737H46.7112V36.5737H47.5901V34.5737ZM47.7112 35.5737V31.3081H45.7112V35.5737H47.7112ZM46.7112 32.3081H48.3752V30.3081H46.7112V32.3081ZM48.3752 32.3081C48.5732 32.3081 48.7005 32.3439 48.7834 32.384L49.6546 30.5837C49.2531 30.3895 48.818 30.3081 48.3752 30.3081V32.3081ZM48.7863 32.3854C48.8676 32.4244 48.9022 32.4633 48.9254 32.5016L50.6376 31.4681C50.399 31.0728 50.0587 30.7777 49.6517 30.5824L48.7863 32.3854ZM48.9274 32.5051C48.9539 32.5485 48.9778 32.6104 48.9778 32.7202H50.9778C50.9778 32.2793 50.8708 31.8509 50.6355 31.4647L48.9274 32.5051ZM48.9778 32.7202C48.9778 32.8809 48.9371 32.9168 48.9023 32.9461L50.1919 34.4748C50.7314 34.0197 50.9778 33.3954 50.9778 32.7202H48.9778ZM48.9028 32.9457C48.8533 32.9874 48.7149 33.0708 48.3606 33.0708V35.0708C49.018 35.0708 49.6706 34.914 50.1914 34.4752L48.9028 32.9457ZM48.3606 33.0708H47.5901V35.0708H48.3606V33.0708ZM47.5901 34.3589H48.3752V32.3589H47.5901V34.3589ZM48.3752 34.3589C48.7509 34.3589 49.2059 34.271 49.5758 33.9369L48.2352 32.4527C48.2962 32.3977 48.3546 32.3724 48.3866 32.3625C48.4148 32.3538 48.4157 32.3589 48.3752 32.3589V34.3589ZM49.5699 33.9422C49.955 33.5999 50.0901 33.1426 50.0901 32.7261H48.0901C48.0901 32.7278 48.0898 32.6894 48.1135 32.6292C48.1391 32.5642 48.1829 32.4992 48.2412 32.4474L49.5699 33.9422ZM50.0901 32.7261C50.0901 32.3075 49.9598 31.8755 49.6289 31.5288L48.1822 32.9097C48.1474 32.8733 48.1204 32.8289 48.1043 32.7848C48.0892 32.7434 48.0901 32.7197 48.0901 32.7261H50.0901ZM49.6289 31.5288C49.2828 31.1662 48.8358 31.0278 48.4138 31.0202L48.3777 33.0199C48.3895 33.0201 48.3658 33.0214 48.3218 33.0042C48.2741 32.9855 48.2238 32.9534 48.1822 32.9097L49.6289 31.5288ZM48.3958 31.02H47.5901V33.02H48.3958V31.02ZM46.5901 32.02V33.3589H48.5901V32.02H46.5901ZM53.1506 33.7251V34.7251H54.1506V33.7251H53.1506ZM51.4631 33.7251V32.7251H50.4631V33.7251H51.4631ZM51.4631 34.8677H50.4631V35.8677H51.4631V34.8677ZM53.4436 34.8677H54.4436V33.8677H53.4436V34.8677ZM53.4436 35.5737V36.5737H54.4436V35.5737H53.4436ZM50.5842 35.5737H49.5842V36.5737H50.5842V35.5737ZM50.5842 31.3081V30.3081H49.5842V31.3081H50.5842ZM53.4377 31.3081H54.4377V30.3081H53.4377V31.3081ZM53.4377 32.02V33.02H54.4377V32.02H53.4377ZM51.4631 32.02V31.02H50.4631V32.02H51.4631ZM51.4631 33.0366H50.4631V34.0366H51.4631V33.0366ZM53.1506 33.0366H54.1506V32.0366H53.1506V33.0366ZM53.1506 32.7251H51.4631V34.7251H53.1506V32.7251ZM50.4631 33.7251V34.8677H52.4631V33.7251H50.4631ZM51.4631 35.8677H53.4436V33.8677H51.4631V35.8677ZM52.4436 34.8677V35.5737H54.4436V34.8677H52.4436ZM53.4436 34.5737H50.5842V36.5737H53.4436V34.5737ZM51.5842 35.5737V31.3081H49.5842V35.5737H51.5842ZM50.5842 32.3081H53.4377V30.3081H50.5842V32.3081ZM52.4377 31.3081V32.02H54.4377V31.3081H52.4377ZM53.4377 31.02H51.4631V33.02H53.4377V31.02ZM50.4631 32.02V33.0366H52.4631V32.02H50.4631ZM51.4631 34.0366H53.1506V32.0366H51.4631V34.0366ZM52.1506 33.0366V33.7251H54.1506V33.0366H52.1506ZM57.2288 32.02V33.02H58.2288V32.02H57.2288ZM55.9221 32.02V31.02H54.9221V32.02H55.9221ZM55.9221 35.5737V36.5737H56.9221V35.5737H55.9221ZM55.0432 35.5737H54.0432V36.5737H55.0432V35.5737ZM55.0432 32.02H56.0432V31.02H55.0432V32.02ZM53.7542 32.02H52.7542V33.02H53.7542V32.02ZM53.7542 31.3081V30.3081H52.7542V31.3081H53.7542ZM57.2288 31.3081H58.2288V30.3081H57.2288V31.3081ZM57.2288 31.02H55.9221V33.02H57.2288V31.02ZM54.9221 32.02V35.5737H56.9221V32.02H54.9221ZM55.9221 34.5737H55.0432V36.5737H55.9221V34.5737ZM56.0432 35.5737V32.02H54.0432V35.5737H56.0432ZM55.0432 31.02H53.7542V33.02H55.0432V31.02ZM54.7542 32.02V31.3081H52.7542V32.02H54.7542ZM53.7542 32.3081H57.2288V30.3081H53.7542V32.3081ZM56.2288 31.3081V32.02H58.2288V31.3081H56.2288ZM60.2991 33.7251V34.7251H61.2991V33.7251H60.2991ZM58.6116 33.7251V32.7251H57.6116V33.7251H58.6116ZM58.6116 34.8677H57.6116V35.8677H58.6116V34.8677ZM60.592 34.8677H61.592V33.8677H60.592V34.8677ZM60.592 35.5737V36.5737H61.592V35.5737H60.592ZM57.7327 35.5737H56.7327V36.5737H57.7327V35.5737ZM57.7327 31.3081V30.3081H56.7327V31.3081H57.7327ZM60.5862 31.3081H61.5862V30.3081H60.5862V31.3081ZM60.5862 32.02V33.02H61.5862V32.02H60.5862ZM58.6116 32.02V31.02H57.6116V32.02H58.6116ZM58.6116 33.0366H57.6116V34.0366H58.6116V33.0366ZM60.2991 33.0366H61.2991V32.0366H60.2991V33.0366ZM60.2991 32.7251H58.6116V34.7251H60.2991V32.7251ZM57.6116 33.7251V34.8677H59.6116V33.7251H57.6116ZM58.6116 35.8677H60.592V33.8677H58.6116V35.8677ZM59.592 34.8677V35.5737H61.592V34.8677H59.592ZM60.592 34.5737H57.7327V36.5737H60.592V34.5737ZM58.7327 35.5737V31.3081H56.7327V35.5737H58.7327ZM57.7327 32.3081H60.5862V30.3081H57.7327V32.3081ZM59.5862 31.3081V32.02H61.5862V31.3081H59.5862ZM60.5862 31.02H58.6116V33.02H60.5862V31.02ZM57.6116 32.02V33.0366H59.6116V32.02H57.6116ZM58.6116 34.0366H60.2991V32.0366H58.6116V34.0366ZM59.2991 33.0366V33.7251H61.2991V33.0366H59.2991ZM62.6868 34.0122L63.5768 33.5563L63.2981 33.0122H62.6868V34.0122ZM61.9866 34.0122V33.0122H60.9866V34.0122H61.9866ZM61.9866 35.5737V36.5737H62.9866V35.5737H61.9866ZM61.1077 35.5737H60.1077V36.5737H61.1077V35.5737ZM61.1077 31.3081V30.3081H60.1077V31.3081H61.1077ZM64.0784 33.3267L63.2399 32.7817L63.2386 32.7838L64.0784 33.3267ZM63.5071 33.7896L63.0964 32.8778L62.1246 33.3155L62.6233 34.2574L63.5071 33.7896ZM64.4299 35.5327H65.4299V35.2843L65.3137 35.0648L64.4299 35.5327ZM64.4299 35.5737V36.5737H65.4299V35.5737H64.4299ZM63.4866 35.5737L62.5965 36.0296L62.8752 36.5737H63.4866V35.5737ZM61.9866 33.3003H60.9866V34.3003H61.9866V33.3003ZM63.2083 33.1333L63.8851 33.8695L63.8914 33.8636L63.2083 33.1333ZM63.217 32.1929L62.5039 32.8939L62.5099 32.9L63.217 32.1929ZM61.9866 32.02V31.02H60.9866V32.02H61.9866ZM62.6868 33.0122H61.9866V35.0122H62.6868V33.0122ZM60.9866 34.0122V35.5737H62.9866V34.0122H60.9866ZM61.9866 34.5737H61.1077V36.5737H61.9866V34.5737ZM62.1077 35.5737V31.3081H60.1077V35.5737H62.1077ZM61.1077 32.3081H62.6926V30.3081H61.1077V32.3081ZM62.6926 32.3081C63.0613 32.3081 63.1918 32.3914 63.2239 32.4177L64.4934 30.8723C63.9786 30.4495 63.3318 30.3081 62.6926 30.3081V32.3081ZM63.2239 32.4177C63.2404 32.4313 63.2442 32.4386 63.2478 32.4471C63.2533 32.4598 63.2688 32.5031 63.2688 32.5972H65.2688C65.2688 31.941 65.0363 31.3182 64.4934 30.8723L63.2239 32.4177ZM63.2688 32.5972C63.2688 32.6705 63.2608 32.7179 63.2536 32.7452C63.2468 32.7712 63.2405 32.7808 63.2399 32.7817L64.9168 33.8716C65.1727 33.478 65.2688 33.0335 65.2688 32.5972H63.2688ZM63.2386 32.7838C63.237 32.7863 63.2308 32.7954 63.2123 32.8104C63.1927 32.8263 63.157 32.8505 63.0964 32.8778L63.9177 34.7013C64.3105 34.5244 64.6678 34.2569 64.9182 33.8696L63.2386 32.7838ZM62.6233 34.2574L63.5461 36.0006L65.3137 35.0648L64.3909 33.3217L62.6233 34.2574ZM63.4299 35.5327V35.5737H65.4299V35.5327H63.4299ZM64.4299 34.5737H63.4866V36.5737H64.4299V34.5737ZM64.3766 35.1179L63.5768 33.5563L61.7967 34.4681L62.5965 36.0296L64.3766 35.1179ZM61.9866 34.3003H62.6956V32.3003H61.9866V34.3003ZM62.6956 34.3003C63.0798 34.3003 63.5239 34.2015 63.8851 33.8695L62.5315 32.3971C62.5859 32.347 62.6414 32.3201 62.6796 32.3077C62.7139 32.2965 62.7238 32.3003 62.6956 32.3003V34.3003ZM63.8914 33.8636C64.2528 33.5255 64.3899 33.0846 64.3899 32.6675H62.3899C62.3899 32.6642 62.3905 32.6259 62.4128 32.5686C62.4366 32.5076 62.4758 32.4491 62.5251 32.403L63.8914 33.8636ZM64.3899 32.6675C64.3899 32.267 64.2689 31.8305 63.9241 31.4858L62.5099 32.9C62.4609 32.8509 62.4265 32.7935 62.4071 32.7402C62.389 32.6906 62.3899 32.6615 62.3899 32.6675H64.3899ZM63.9302 31.4918C63.5568 31.112 63.073 31.02 62.6926 31.02V33.02C62.7331 33.02 62.7256 33.0254 62.6879 33.013C62.6453 32.9989 62.5736 32.9648 62.5039 32.8939L63.9302 31.4918ZM62.6926 31.02H61.9866V33.02H62.6926V31.02ZM60.9866 32.02V33.3003H62.9866V32.02H60.9866ZM66.9758 34.0737L66.3674 34.8674L66.3758 34.8737L66.9758 34.0737ZM66.343 33.7925L66.0323 34.743L66.0378 34.7448L66.343 33.7925ZM65.6194 33.4995L65.144 34.3793L65.1453 34.38L65.6194 33.4995ZM65.0862 31.8267L64.2748 31.2421L64.2736 31.2438L65.0862 31.8267ZM65.6458 31.4019L65.2617 30.4786L65.259 30.4797L65.6458 31.4019ZM67.2805 31.4165L66.8572 32.3225L66.8633 32.3253L67.2805 31.4165ZM67.8342 31.8823L66.996 32.4276L66.9997 32.4333L67.8342 31.8823ZM68.0334 32.5679V33.5679H69.0334V32.5679H68.0334ZM67.1545 32.5679H66.1545V33.5679H67.1545V32.5679ZM66.97 32.1138L66.3056 32.8612L66.3123 32.8671L66.97 32.1138ZM65.9504 32.0874L66.5526 32.8859L66.5608 32.8795L65.9504 32.0874ZM65.9797 32.7935L65.4197 33.6219L65.425 33.6255L65.9797 32.7935ZM66.5979 33.0571L66.3087 34.0144L66.3099 34.0147L66.5979 33.0571ZM67.6145 35.3188L68.2136 36.1195L68.2172 36.1168L67.6145 35.3188ZM65.5901 35.4536L65.1803 36.3658L65.1858 36.3682L65.5901 35.4536ZM64.9719 34.9585L64.1422 35.5168L64.1459 35.5221L64.9719 34.9585ZM64.761 34.2319V33.2319H63.761V34.2319H64.761ZM65.6428 34.2319H66.6428V33.2319H65.6428V34.2319ZM66.9758 34.812L67.5584 35.6249L67.5672 35.6184L66.9758 34.812ZM68.1516 34.4546C68.1516 34.0218 67.9809 33.5775 67.5758 33.2737L66.3758 34.8737C66.3083 34.8231 66.2432 34.7482 66.1997 34.6539C66.1581 34.5637 66.1516 34.4895 66.1516 34.4546H68.1516ZM67.5843 33.2801C67.3199 33.0775 66.9649 32.9417 66.6482 32.8402L66.0378 34.7448C66.1679 34.7864 66.2609 34.822 66.3236 34.8498C66.3926 34.8805 66.396 34.8892 66.3674 34.8673L67.5843 33.2801ZM66.6538 32.842C66.3768 32.7514 66.1978 32.6752 66.0935 32.619L65.1453 34.38C65.3965 34.5152 65.6999 34.6343 66.0323 34.743L66.6538 32.842ZM66.0948 32.6197C65.9532 32.5433 65.908 32.4861 65.8987 32.4726C65.8962 32.469 65.8953 32.467 65.8951 32.4667C65.8949 32.4663 65.8949 32.4663 65.8949 32.4663C65.8949 32.4662 65.8945 32.4648 65.894 32.4614C65.8935 32.458 65.8928 32.4517 65.8928 32.4419H63.8928C63.8928 33.3469 64.4288 33.9929 65.144 34.3793L66.0948 32.6197ZM65.8928 32.4419C65.8928 32.431 65.8936 32.424 65.8941 32.4202C65.8944 32.4183 65.8947 32.417 65.8949 32.4162C65.895 32.4155 65.8951 32.4151 65.8952 32.4151C65.8952 32.415 65.8951 32.4151 65.8951 32.4152C65.895 32.4154 65.895 32.4154 65.8951 32.4152C65.8952 32.415 65.8961 32.4132 65.8987 32.4096L64.2736 31.2438C64.0175 31.6008 63.8928 32.0117 63.8928 32.4419H65.8928ZM65.8976 32.4112C65.9032 32.4033 65.9304 32.3668 66.0325 32.324L65.259 30.4797C64.8767 30.64 64.5309 30.8867 64.2748 31.2421L65.8976 32.4112ZM66.0298 32.3252C66.1359 32.281 66.2762 32.2495 66.4661 32.2495V30.2495C66.0505 30.2495 65.6439 30.3196 65.2617 30.4786L66.0298 32.3252ZM66.4661 32.2495C66.6476 32.2495 66.7709 32.2822 66.8572 32.3225L67.7038 30.5105C67.3136 30.3282 66.8939 30.2495 66.4661 30.2495V32.2495ZM66.8633 32.3253C66.9462 32.3634 66.9777 32.3996 66.996 32.4276L68.6725 31.337C68.429 30.9627 68.0914 30.6884 67.6977 30.5077L66.8633 32.3253ZM66.9997 32.4333C67.0178 32.4607 67.0334 32.4953 67.0334 32.5679H69.0334C69.0334 32.1288 68.9163 31.7063 68.6688 31.3314L66.9997 32.4333ZM68.0334 31.5679H67.1545V33.5679H68.0334V31.5679ZM68.1545 32.5679C68.1545 32.1457 68.0109 31.695 67.6276 31.3605L66.3123 32.8671C66.256 32.8179 66.2101 32.7535 66.182 32.6844C66.1557 32.6196 66.1545 32.5746 66.1545 32.5679H68.1545ZM67.6343 31.3664C67.2721 31.0444 66.8318 30.9497 66.4514 30.9497V32.9497C66.4828 32.9497 66.4768 32.9538 66.4464 32.9441C66.4125 32.9334 66.3594 32.909 66.3056 32.8612L67.6343 31.3664ZM66.4514 30.9497C66.1077 30.9497 65.6952 31.0217 65.3401 31.2953L66.5608 32.8795C66.5031 32.924 66.453 32.9421 66.4301 32.9484C66.4094 32.954 66.413 32.9497 66.4514 32.9497V30.9497ZM65.3483 31.289C64.9802 31.5666 64.7717 31.9806 64.7717 32.4448H66.7717C66.7717 32.5079 66.7581 32.5968 66.7108 32.6914C66.6637 32.7857 66.6012 32.8491 66.5525 32.8858L65.3483 31.289ZM64.7717 32.4448C64.7717 32.9872 65.0711 33.3862 65.4197 33.6219L66.5398 31.965C66.5639 31.9813 66.6264 32.0295 66.6825 32.1236C66.7426 32.2244 66.7717 32.3384 66.7717 32.4448H64.7717ZM65.425 33.6255C65.6843 33.7983 65.9976 33.9204 66.3087 34.0144L66.8871 32.0999C66.6553 32.0298 66.5564 31.9761 66.5344 31.9614L65.425 33.6255ZM66.3099 34.0147C66.7428 34.145 66.9305 34.2722 66.9928 34.3329L68.3885 32.9005C67.9938 32.5159 67.4531 32.2701 66.8859 32.0995L66.3099 34.0147ZM66.9928 34.3329C67.0157 34.3553 67.0212 34.3679 67.0231 34.3726C67.0254 34.3782 67.0334 34.3994 67.0334 34.4487H69.0334C69.0334 33.8593 68.8189 33.3198 68.3885 32.9005L66.9928 34.3329ZM67.0334 34.4487C67.0334 34.4779 67.0307 34.4954 67.029 34.5035C67.0273 34.5112 67.0263 34.5122 67.0277 34.5093C67.0292 34.5062 67.0308 34.5042 67.0307 34.5043C67.0304 34.5047 67.0254 34.5106 67.0118 34.5209L68.2172 36.1168C68.7622 35.7052 69.0334 35.1115 69.0334 34.4487H67.0334ZM67.0154 34.5182C66.9611 34.5588 66.8189 34.6323 66.4866 34.6323V36.6323C67.0995 36.6323 67.7093 36.4969 68.2136 36.1195L67.0154 34.5182ZM66.4866 34.6323C66.2818 34.6323 66.1228 34.5958 65.9944 34.539L65.1858 36.3682C65.5964 36.5498 66.0351 36.6323 66.4866 36.6323V34.6323ZM65.9999 34.5414C65.8699 34.4831 65.8202 34.4275 65.798 34.3949L64.1459 35.5221C64.4088 35.9075 64.7712 36.182 65.1803 36.3658L65.9999 34.5414ZM65.8016 34.4002C65.7823 34.3716 65.761 34.3278 65.761 34.2319H63.761C63.761 34.6868 63.8803 35.1274 64.1423 35.5168L65.8016 34.4002ZM64.761 35.2319H65.6428V33.2319H64.761V35.2319ZM64.6428 34.2319C64.6428 34.6729 64.783 35.1694 65.212 35.5284C65.6069 35.8588 66.0903 35.938 66.4866 35.938V33.938C66.4124 33.938 66.3834 33.9299 66.3861 33.9306C66.3913 33.9321 66.4377 33.9462 66.4955 33.9946C66.5571 34.0461 66.6007 34.1108 66.6246 34.1708C66.646 34.2247 66.6428 34.2521 66.6428 34.2319H64.6428ZM66.4866 35.938C66.8145 35.938 67.2104 35.8742 67.5583 35.6248L66.3933 33.9992C66.4506 33.9582 66.4979 33.9428 66.5163 33.9381C66.533 33.9338 66.5262 33.938 66.4866 33.938V35.938ZM67.5672 35.6184C67.9555 35.3337 68.1516 34.9074 68.1516 34.4546H66.1516C66.1516 34.4003 66.1628 34.3136 66.2103 34.2169C66.2587 34.1186 66.3257 34.0487 66.3845 34.0056L67.5672 35.6184Z" fill="white"/>
</svg>
